<?xml version="1.0" encoding="UTF-8"?>
<svg id="Layer_1" xmlns="http://www.w3.org/2000/svg" version="1.1" viewBox="0 0 1604.5 448.5">
  <!-- Generator: Adobe Illustrator 30.8.0, SVG Export Plug-In . SVG Version: 2.1.4 Build 54)  -->
  <defs>
    <style>
      .st0 {
        fill: #f4f1ef;
      }
    </style>
  </defs>
  <g>
    <g>
      <path class="st0" d="M64.6,137.4v8.3c9.8.6,16.6,2,20.2,4,6,3.3,9,9.7,9,19.2v158.9c0,9.4-3.1,15.8-9.1,19.2-4,2.2-10.6,3.5-20.1,3.8v8.3h118.2v-8.3c-12.2.2-21.2-1-27.2-3.8s-8.9-9.2-8.9-19.3v-76.5c17.6,0,29.9,4.1,36.6,12.2,6.8,8.1,11.3,21.1,13.5,38.8h8.3v-111h-8.3c-3.2,17.1-7.9,29.6-14.2,37.4-6.2,7.8-18.3,11.5-36,11.2v-76c0-6,1.3-10.1,3.9-12.3s8.7-3.3,18.4-3.3c25.9,0,43.6,4.1,53.2,12.3,9.6,8.2,16.5,22.5,20.5,42.9h8v-66.2H64.6Z"/>
      <path class="st0" d="M394.4,222.9c-15.3-15-34.6-22.5-57.8-22.5s-43.8,7.9-59,23.6c-15.1,15.5-22.7,35.3-22.7,59.4s7.2,40.5,21.7,55.9c15.5,16.4,35.5,24.6,60.1,24.6s42.4-7.5,57.8-22.5c15.8-15.3,23.7-35.1,23.7-59.3s-7.9-43.9-23.7-59.3h0ZM372,325.5c-6.4,20.4-18.3,30.7-35.5,30.7s-29.3-10.2-35.6-30.7c-3.5-11-5.2-25.4-5.2-43.3s1.7-31.9,5-42.9c6.5-20.7,18.4-31.1,35.8-31.1s22.4,6.2,29.7,18.6c7.3,12.4,11,30.9,11,55.3s-1.7,32.2-5.2,43.3h0Z"/>
      <path class="st0" d="M856.6,226.6c-14.9-15.1-36.5-22.7-64.9-22.7h-113.7c-.3,0-.6.3-.6.6v4.7c0,.3.2.5.5.6,8.2.7,13.7,2.7,16.5,6,2.8,3.3,4.2,8.9,4.2,16.7v67.5h-.8c-.2,0-.3,0-.4-.2l-78.7-95.6c-.1-.1-.3-.2-.4-.2h-94c-.3,0-.6.3-.6.6v4.7c0,.3.2.5.5.6,8.5.7,14.3,2.6,17.3,5.6,3,3.1,4.5,8.8,4.5,17v70.3c0,13-1.7,23-5.2,30.2-6.2,13.1-18.2,19.7-35.8,19.7s-23.8-5.9-28.8-17.8c-2.8-6.4-4.2-15.4-4.2-27.1v-77c0-8.8,1.5-14.4,4.5-16.9,2.9-2.4,8.7-3.8,17.3-4.1.3,0,.6-.3.6-.6v-4.7c0-.3-.3-.6-.6-.6h-76.5c-.3,0-.6.3-.6.6v4.8c0,.3.2.5.5.6,7.7.9,12.7,2.5,14.9,4.6,2.3,2.2,3.4,7.7,3.4,16.3v77c0,13.2,2.6,24.1,7.7,32.5,9.7,15.8,27.8,23.7,54.2,23.7s35-5.3,44.5-15.9c9.4-10.6,14.1-25.7,14.1-45.2v-73.5c0-7.4,1.2-12.1,3.5-14.2,1.8-1.5,5-2.9,9.5-4.1,2.5-.7,5.3-.2,7.3,1.5,0,0,0,0,0,0,1.6,1.4,5.9,5.9,12.9,13.7,0,.1.2.2.2.4v108.7c0,5.9-1.2,10.4-3.7,13.4-2.4,3-7.7,4.6-15.9,4.9-.3,0-.6.3-.6.6v4.7c0,.3.3.6.6.6h51c.3,0,.6-.3.6-.6v-4.7c0-.3-.2-.5-.5-.6-9.2-.5-15.3-3-18.3-7.7-2-2.9-2.9-7.9-2.9-15v-89.6c0-.3.3-.6.6-.6h.7c.2,0,.3,0,.4.2l100.8,122.5c.1.1.3.2.4.2h5.6c.3,0,.6-.3.6-.6v-134.9c0-7,1.2-11.5,3.7-13.5,1.4-1.1,3.4-2.1,6.3-3,4.4-1.3,9.2-1.4,13.5,0,.8.3,1.5.6,2.1.9,4.3,2.3,6.4,6.4,6.4,12.3v113.4c0,6.1-2.2,10.4-6.7,12.7-2.5,1.3-6.7,2.1-12.5,2.5v5.8h72.6c26.3,0,47.1-8.1,62.4-24.4,13.6-14.4,20.4-32.1,20.4-52.9s-6.8-41.7-20.3-55.5h0ZM823.8,337.2c-8.8,9.6-20,14.4-33.6,14.4s-8.3-1-9.8-3.1c-1.5-2.1-2.4-5.5-2.6-10.2v-113.2c0-4.7.6-7.9,1.8-9.5,1.8-2.5,5.7-3.8,11.7-3.8,18.1,0,31,9.4,38.6,28.2,4.7,11.7,7.1,25.6,7.1,41.9,0,27.3-4.4,45.8-13.1,55.4h0Z"/>
      <path class="st0" d="M1010.3,347.8c-2.8-3.9-7.2-12.7-12.9-26.2l-51.3-120.8h-6.4l-51.1,125.8c-4,10-7.2,16.4-9.3,19.3-3.4,4.6-7.8,7.2-13.3,7.5v5.8h46.9v-5.8c-5.2,0-9.2-.5-11.8-1.3-4.4-1.5-6.6-3.9-6.6-7.2s1-7,3-12.9c1-2.8,3.2-8.7,6.5-17.8h51.6l5.8,13.9c1.3,3.1,2.3,5.7,3,7.9,1.2,3.7,1.8,6.4,1.8,8.2,0,4-1.2,6.4-3.5,7.4-2.4,1-7.3,1.6-14.8,1.9v5.8h74.4v-5.8c-5.2.2-9.3-1.7-12.1-5.7h0ZM907.5,305.1l20.8-53.2h1.9l22.1,53.2h-44.8Z"/>
      <path class="st0" d="M1142,204h-138.4l-.2,46.4h6.6c1.4-16.4,7.6-27.7,18.6-33.7,6-3.2,14.6-5,25.8-5.3v121.1c0,8.4-1.5,14-4.4,16.8-2.9,2.8-8.9,4.2-17.9,4.2v5.8h81.9v-5.8c-9.3,0-15.5-1.4-18.5-4.2-3-2.8-4.4-8.4-4.4-16.8v-121.1c11.4.3,20.1,2.1,25.8,5.3,10.2,5.8,16.5,17.1,18.6,33.7h6.6l-.2-46.4h0Z"/>
      <path class="st0" d="M1360.6,222.9c-15.3-15-34.6-22.5-57.8-22.5s-43.8,7.9-59,23.6c-15.1,15.5-22.7,35.3-22.7,59.4s7.2,40.5,21.7,55.9c15.5,16.4,35.5,24.6,60.1,24.6s42.4-7.5,57.8-22.5c15.8-15.3,23.7-35.1,23.7-59.3s-7.9-43.9-23.7-59.3h0ZM1338.3,325.5c-6.4,20.4-18.3,30.7-35.5,30.7s-29.3-10.2-35.6-30.7c-3.4-11-5.2-25.4-5.2-43.3s1.7-31.9,5.1-42.9c6.4-20.7,18.4-31.1,35.8-31.1s22.4,6.2,29.7,18.6c7.3,12.4,11,30.9,11,55.3s-1.7,32.2-5.2,43.3h0Z"/>
      <path class="st0" d="M1491,204v5.8c8.5.7,14.1,2.7,17,6s4.2,8.9,4.2,16.7v67.5h-1.1l-79-96h-48.7v5.8c2.8.4,5.1,1.3,6.7,2.6,1.7,1.4,6,6,13,13.9v108.9c0,5.9-1.2,10.4-3.7,13.4-2.5,3-8,4.7-16.5,4.9v5.8h52.1v-5.8c-9.5-.4-15.8-2.9-18.9-7.7-1.9-2.9-2.9-7.9-2.9-15v-90.2h1.6l101.1,122.9h6.4v-135.5c0-7,1.2-11.5,3.7-13.5,2.4-2,7.2-3.6,14.4-4.8v-5.8h-49.4Z"/>
    </g>
    <g>
      <path class="st0" d="M326.5,66.8h80.3l.8,24.1h-3.4c-1.7-7.6-3.8-12.5-6.3-14.8-2.6-2.3-8-3.4-16.2-3.4h-7.9v72.7c0,5.5.9,8.9,2.6,10.2,1.7,1.3,5.5,2.2,11.2,2.6v2.6h-41.4v-2.6c6-.5,9.8-1.4,11.2-3,1.5-1.5,2.2-5.3,2.2-11.5v-71h-8c-7.9,0-13.2,1.1-16.1,3.4s-5,7.2-6.4,14.8h-3.5l.8-24.1h0Z"/>
      <path class="st0" d="M422.1,158.1c5.6-.6,9-1.6,10.4-3.1,1.4-1.4,2.1-5.2,2.1-11.4v-61.5c0-5.1-.8-8.4-2.3-9.9-1.5-1.5-4.9-2.5-10.2-2.8v-2.6h39.4v2.6c-5.2.4-8.6,1.3-10.1,2.8-1.6,1.5-2.3,4.8-2.3,9.9v27.7h43.2v-27.7c0-5.1-.8-8.4-2.3-9.9-1.5-1.5-4.9-2.5-10.2-2.8v-2.6h39.4v2.6c-5.2.4-8.6,1.3-10.2,2.8-1.5,1.5-2.3,4.8-2.3,9.9v63.2c0,5.2.8,8.5,2.3,9.9s4.9,2.4,10.2,2.9v2.6h-39.4v-2.6c5.6-.6,9.1-1.6,10.4-3s2-5.3,2-11.4v-27.6h-43.2v29.3c0,5.2.8,8.5,2.3,9.9,1.6,1.5,4.9,2.4,10.1,2.8v2.6h-39.4v-2.6h0Z"/>
      <path class="st0" d="M533.8,158.1c5.2-.6,8.6-1.5,10.2-2.8,1.5-1.3,2.3-4.6,2.3-10v-63.2c0-5-.8-8.3-2.3-9.9-1.5-1.5-4.9-2.5-10.2-2.9v-2.6h75.5l.5,20.3h-3.6c-1.2-6.3-3-10.3-5.4-12.2-2.4-1.8-7.8-2.8-16.1-2.8h-19.3c-2.1,0-3.4.3-3.9,1s-.7,1.9-.7,3.8v31.7h21.9c6.1,0,9.9-.9,11.6-2.7,1.7-1.8,3-5.4,4-10.9h3.3v32.8h-3.3c-1.1-5.5-2.4-9.1-4.1-10.9-1.7-1.8-5.5-2.7-11.5-2.7h-21.9v35.2c0,2.8.9,4.5,2.7,5s7.1.8,16,.8,16.7-1.1,21.3-3.2c4.6-2.1,8.7-7.2,12.4-15.3h4l-6.5,24h-76.8v-2.6h0Z"/>
    </g>
    <path class="st0" d="M1222.1,182.1c-6.3,4.2-8.5,7.5-8.9,9.9-.5,2.6-2.9,4.5-5.6,4.5h-5.7c-1.9,0-3.7-.7-5-1.9-2.5-2.3-5.5-6.6-3.6-13.4,5.7-20.2,35.7-15,38.1-37.6,0,0-6.5,15-28.2,13.9-25.6-1.3-39.6,13.6-19.4,39h-2.4c-17.2,0-30.7-15.6-27.5-32.5,4.9-25.3,41.6-23.3,41.6-23.3,49.5,1.4,25.9-46.1,25.3-47.4,47.3,59,10.1,83.7,4.1,87.2-.9.5-1.7,1-2.6,1.6h0Z"/>
  </g>
  <path class="st0" d="M1181.4,313.5c.8-2.1.9-4.4.3-6.6l-8.7-30.3,4.3-6v-10.3h-2.1v-7.5h1.6l-21.6-39.2v-10.9h66.8v10.9l-21.6,39.2h1.6v7.5h-2.1v10.3l4,6-8.7,30.6c-.6,2.1-.5,4.4.3,6.5l-4.1,54c-.6,1.6-5.6,1.6-6.2,0l-3.9-54.3h0Z"/>
</svg>